<svg width="174" height="240" viewBox="0 0 174 240" fill="none" xmlns="http://www.w3.org/2000/svg">
<g id="Group 28">
<path id="Rectangle 96" d="M78.6957 212H2V2H170V203.098" stroke="#1D1D1D" stroke-width="4"/>
<path id="Rectangle 100" opacity="0.5" d="M152 143.268V18H20V194H89.8425" stroke="#1D1D1D" stroke-width="4"/>
<circle id="Ellipse 26" cx="129.5" cy="177.5" r="27.5" stroke="#1D1D1D" stroke-width="4"/>
<path id="Ellipse 27" opacity="0.5" d="M144 178C144 170.268 137.732 164 130 164" stroke="#1D1D1D" stroke-width="4"/>
<path id="Rectangle 98" d="M101.477 202.248L89.6133 222.779L104.04 224.257L112.534 236.001L129.977 205.815" stroke="#1D1D1D" stroke-width="4"/>
<path id="Rectangle 99" d="M151.5 193.5L170 222.779L155.574 224.257L147.079 236L136 216.5" stroke="#1D1D1D" stroke-width="4"/>
<path id="Vector 36" d="M55 49H117" stroke="#1D1D1D" stroke-width="4"/>
<path id="Vector 37" d="M40 63H132" stroke="#1D1D1D" stroke-width="4"/>
<path id="Vector 38" d="M69 101L132 101" stroke="#1D1D1D" stroke-width="4"/>
<path id="Vector 40" d="M69 114L132 114" stroke="#1D1D1D" stroke-width="4"/>
<path id="Vector 42" d="M69 127L132 127" stroke="#1D1D1D" stroke-width="4"/>
<path id="Vector 44" d="M40 164H69" stroke="#1D1D1D" stroke-width="4"/>
<path id="Vector 39" d="M40 101L52 101" stroke="#1D1D1D" stroke-width="4"/>
<path id="Vector 41" d="M40 114L52 114" stroke="#1D1D1D" stroke-width="4"/>
<path id="Vector 43" d="M40 127L52 127" stroke="#1D1D1D" stroke-width="4"/>
</g>
</svg>
